<?xml version="1.0" encoding="iso-8859-1"?>
<!-- Generator: Adobe Illustrator 19.0.0, SVG Export Plug-In . SVG Version: 6.00 Build 0)  -->
<svg version="1.1" id="Capa_1" xmlns="http://www.w3.org/2000/svg" xmlns:xlink="http://www.w3.org/1999/xlink" x="0px" y="0px"
	 viewBox="0 0 512 512" style="enable-background:new 0 0 512 512;" xml:space="preserve">
<circle style="fill:#FFCF4B;" cx="256" cy="256" r="256"/>
<path style="fill:#535B70;" d="M503.557,60.05v261.381c-7.555,28.693-19.978,55.411-36.321,79.224H44.763
	c-14.733-21.462-26.269-45.286-33.938-70.781V60.05c0-17,13.782-30.793,30.783-30.793h431.167
	C489.775,29.257,503.557,43.05,503.557,60.05z"/>
<path style="fill:#E8E8E8;" d="M485.473,67.374v282.07c0,10.292-6.447,18.641-14.409,18.641H43.314
	c-7.952,0-14.399-8.349-14.399-18.641V67.374c0-10.292,6.447-18.641,14.399-18.641h427.75
	C479.026,48.733,485.473,57.082,485.473,67.374z"/>
<rect x="160.413" y="400.656" style="fill:#535B70;" width="193.557" height="75.797"/>
<rect x="160.413" y="400.656" style="fill:#42495B;" width="193.557" height="20.27"/>
<g>
	<path style="fill:#6E7789;" d="M398.764,468.522c-5.413,3.647-10.982,7.095-16.687,10.324H129.923
		c-5.13-2.905-10.156-5.987-15.057-9.226c10.136-15.287,27.376-24.785,46.174-24.785h192.303c11.16,0,21.786,3.354,30.689,9.279
		C389.747,457.916,394.762,462.796,398.764,468.522z"/>
	<path style="fill:#6E7789;" d="M236.997,210.073l-6.492,1.119c-2.928-16.994-11.819-32.541-25.034-43.779
		c-13.363-11.363-30.4-17.621-47.971-17.621v-6.587c19.134,0,37.686,6.815,52.239,19.19
		C224.126,174.629,233.807,191.561,236.997,210.073z"/>
	<path style="fill:#6E7789;" d="M236.997,237.705c-3.19,18.511-12.87,35.444-27.259,47.679
		c-14.553,12.375-33.105,19.19-52.239,19.19v-6.587c17.572,0,34.608-6.258,47.971-17.621c13.216-11.237,22.106-26.785,25.034-43.779
		L236.997,237.705z"/>
</g>
<g>
	<rect x="130.988" y="132.66" style="fill:#FCFCFC;" width="26.513" height="26.513"/>
	<rect x="130.988" y="288.601" style="fill:#FCFCFC;" width="26.513" height="26.513"/>
	<rect x="221.278" y="210.631" style="fill:#FCFCFC;" width="26.513" height="26.513"/>
</g>
<rect x="230.463" y="147.926" style="fill:#6E7789;" width="6.587" height="62.704"/>
<circle style="fill:#F44E72;" cx="233.754" cy="136.819" r="11.107"/>
<rect x="230.463" y="237.15" style="fill:#6E7789;" width="6.587" height="62.704"/>
<circle style="fill:#F44E72;" cx="233.754" cy="310.951" r="11.107"/>
<path style="fill:#535B70;" d="M346.981,204.668c-0.537,0.162-1.066,0.328-1.59,0.493l0,0v-2.718c0-4.355-3.531-7.885-7.885-7.885
	l0,0c-4.355,0-7.885,3.531-7.885,7.885v1.155c-12.918-2.969-23.913-11.939-29.132-24.508c-0.044-0.096-0.084-0.192-0.122-0.288
	c-13.661,15.343-34.921,27.623-56.076,36.17v3.688h28.68c2.019-3.829,6.18-6.35,10.89-5.961c5.497,0.45,9.911,4.968,10.251,10.471
	c0.411,6.529-4.764,11.947-11.204,11.947c-4.313,0-8.058-2.429-9.937-6h-28.676l-0.004,3.688
	c21.155,8.552,42.415,20.832,56.075,36.17c0.04-0.092,0.078-0.192,0.122-0.288c5.218-12.572,16.215-21.537,29.132-24.504v1.151
	c0,4.355,3.531,7.885,7.885,7.885c4.355,0,7.885-3.531,7.885-7.885v-1.876l0,0c6.865,2.181,14.88,4.099,23.799,5.677
	c1.132-4.68,1.954-9.482,2.447-14.386c0.363-3.57,0.547-7.197,0.547-10.864c0-8.408-0.97-16.589-2.806-24.437
	C361.061,200.919,353.528,202.676,346.981,204.668z"/>
<path style="fill:#FCFCFC;" d="M485.473,67.374v12.319H28.915V67.374c0-10.292,6.447-18.641,14.399-18.641h427.75
	C479.026,48.733,485.473,57.082,485.473,67.374z"/>
<circle style="fill:#F44E72;" cx="51.722" cy="64.021" r="8.359"/>
<circle style="fill:#FFCF4B;" cx="78.367" cy="64.021" r="8.359"/>
<circle style="fill:#4ACC9A;" cx="105.012" cy="64.021" r="8.359"/>
<g>
	<rect x="28.915" y="79.694" style="fill:#D6D6D6;" width="51.545" height="42.318"/>
	<rect x="28.915" y="131.417" style="fill:#D6D6D6;" width="51.545" height="39.184"/>
	<rect x="28.915" y="180.005" style="fill:#D6D6D6;" width="51.545" height="39.184"/>
	<rect x="28.915" y="228.592" style="fill:#D6D6D6;" width="51.545" height="39.184"/>
	<rect x="28.915" y="277.18" style="fill:#D6D6D6;" width="51.545" height="39.184"/>
	<path style="fill:#D6D6D6;" d="M28.915,325.767H80.46v42.318H43.314c-7.952,0-14.399-8.349-14.399-18.641
		C28.915,349.444,28.915,325.767,28.915,325.767z"/>
	<rect x="400.196" y="94.323" style="fill:#D6D6D6;" width="85.274" height="62.694"/>
	<rect x="400.196" y="169.556" style="fill:#D6D6D6;" width="85.274" height="62.694"/>
</g>
<g>
</g>
<g>
</g>
<g>
</g>
<g>
</g>
<g>
</g>
<g>
</g>
<g>
</g>
<g>
</g>
<g>
</g>
<g>
</g>
<g>
</g>
<g>
</g>
<g>
</g>
<g>
</g>
<g>
</g>
</svg>
