<svg id="svg" version="1.1" xmlns="http://www.w3.org/2000/svg" xmlns:xlink="http://www.w3.org/1999/xlink" width="400" height="400" viewBox="0, 0, 400,400"><g id="svgg"><path id="path0" d="M87.800 224.659 C 85.861 224.971,81.732 226.308,80.313 227.083 C 79.107 227.742,77.132 227.816,56.000 228.000 L 33.000 228.200 32.889 234.592 C 32.819 238.634,32.945 241.427,33.231 242.192 C 35.350 247.862,38.571 250.997,43.953 252.631 C 45.374 253.062,48.815 253.192,58.871 253.196 L 71.943 253.200 72.433 255.500 C 74.474 265.068,82.844 272.000,92.356 272.000 C 94.872 272.000,100.148 270.634,101.586 269.610 C 102.211 269.165,102.911 268.800,103.140 268.800 C 105.355 268.800,110.890 260.541,112.052 255.500 L 112.582 253.200 116.304 253.200 C 120.739 253.200,120.731 253.209,120.053 248.847 C 119.465 245.066,119.038 243.647,117.563 240.584 C 116.923 239.255,116.400 237.860,116.400 237.484 C 116.400 236.841,121.158 236.800,196.000 236.800 C 250.507 236.800,275.600 236.930,275.600 237.213 C 275.600 237.441,275.171 238.476,274.647 239.513 C 272.717 243.335,270.690 252.027,271.529 252.884 C 271.682 253.040,273.516 253.220,275.604 253.284 L 279.400 253.400 279.524 254.600 C 280.907 268.033,297.273 276.117,309.400 269.356 C 314.435 266.549,319.600 258.918,319.600 254.286 L 319.600 253.229 323.500 253.114 L 327.400 253.000 327.269 249.800 C 327.130 246.384,326.070 242.478,324.534 239.723 C 322.794 236.600,321.671 236.821,339.855 236.704 L 356.109 236.600 357.246 233.752 C 357.871 232.186,358.432 230.296,358.491 229.552 L 358.600 228.200 336.241 228.097 L 313.882 227.993 310.438 226.615 C 302.826 223.570,293.865 223.812,287.116 227.245 C 285.674 227.978,283.065 228.000,195.916 227.991 L 106.200 227.982 104.400 227.154 C 99.690 224.985,92.490 223.903,87.800 224.659 M97.827 240.054 C 106.120 243.950,107.685 255.134,100.803 261.322 C 92.366 268.907,79.426 263.149,79.406 251.800 C 79.389 242.172,89.123 235.965,97.827 240.054 M304.881 239.986 C 317.389 245.865,313.358 264.800,299.600 264.800 C 284.877 264.800,281.772 243.998,295.800 239.334 C 298.051 238.585,302.596 238.912,304.881 239.986 " stroke="none" fill="#407086" fill-rule="evenodd"></path><path id="path1" d="M158.533 128.594 C 153.477 129.830,143.914 133.925,140.128 136.474 C 139.208 137.093,138.373 137.600,138.271 137.600 C 137.730 137.600,125.196 145.958,122.718 147.971 C 122.563 148.097,123.649 148.142,125.130 148.071 C 126.612 147.999,128.539 147.999,129.412 148.071 L 131.000 148.200 112.942 166.400 C 103.010 176.410,94.343 185.185,93.681 185.900 C 92.307 187.386,91.371 187.493,86.129 186.765 C 82.201 186.220,82.280 186.371,84.623 183.876 C 86.085 182.321,85.955 182.409,84.125 184.216 C 81.404 186.903,81.819 186.750,72.800 188.422 C 61.282 190.557,58.934 191.186,54.315 193.370 C 42.285 199.059,32.821 213.024,32.804 225.112 L 32.800 227.625 55.900 227.512 L 79.000 227.400 80.512 226.500 C 81.344 226.005,82.291 225.600,82.618 225.600 C 82.944 225.600,83.523 225.441,83.905 225.247 C 87.177 223.586,97.223 223.586,100.495 225.247 C 100.877 225.441,101.456 225.600,101.782 225.600 C 102.109 225.600,103.056 226.005,103.888 226.500 L 105.400 227.400 196.115 227.400 C 262.100 227.400,286.907 227.279,287.115 226.956 C 287.272 226.712,288.120 226.282,289.000 226.001 C 289.880 225.719,290.960 225.354,291.400 225.189 C 295.719 223.566,306.179 223.646,307.847 225.314 C 308.005 225.471,308.458 225.600,308.855 225.600 C 309.251 225.600,310.256 226.005,311.088 226.500 L 312.600 227.400 335.937 227.512 C 354.769 227.603,359.242 227.526,359.105 227.112 C 358.990 226.765,357.914 226.568,355.768 226.499 C 354.026 226.444,352.193 226.305,351.696 226.191 L 350.791 225.983 350.896 209.691 L 351.000 193.400 353.400 193.297 C 357.473 193.122,357.611 193.047,357.402 191.094 C 357.302 190.163,357.031 186.430,356.798 182.800 C 356.565 179.170,356.194 173.770,355.973 170.800 C 355.752 167.830,355.403 163.150,355.198 160.400 C 354.993 157.650,354.622 152.520,354.373 149.000 C 353.491 136.510,349.833 130.894,341.060 128.558 C 338.136 127.779,161.722 127.814,158.533 128.594 M118.435 151.227 C 116.584 152.726,114.694 154.351,114.235 154.837 C 113.776 155.323,115.290 154.222,117.600 152.390 C 119.910 150.558,121.875 149.001,121.967 148.930 C 122.058 148.858,122.058 148.733,121.967 148.651 C 121.875 148.569,120.286 149.728,118.435 151.227 M165.874 150.427 C 168.789 151.531,168.800 151.575,168.796 161.370 C 168.788 176.231,164.513 183.554,153.849 186.973 C 152.907 187.275,145.355 188.757,140.400 189.612 C 138.970 189.859,136.990 190.213,136.000 190.400 C 135.010 190.587,133.120 190.931,131.800 191.165 C 130.480 191.399,127.420 191.947,125.000 192.383 C 122.580 192.819,117.000 193.824,112.600 194.616 C 108.200 195.408,102.655 196.424,100.279 196.874 C 97.902 197.323,95.879 197.613,95.784 197.518 C 95.509 197.242,101.699 188.266,104.955 184.217 C 113.579 173.495,123.639 164.005,132.019 158.687 C 134.629 157.031,142.067 153.200,142.673 153.200 C 142.904 153.200,143.972 152.861,145.047 152.447 C 150.246 150.444,162.725 149.234,165.874 150.427 M109.370 159.103 C 106.006 162.327,106.927 161.706,110.876 158.086 C 112.128 156.939,113.028 156.001,112.876 156.003 C 112.724 156.004,111.146 157.399,109.370 159.103 M96.265 171.453 C 91.279 176.434,87.200 180.624,87.200 180.764 C 87.200 180.904,91.337 176.886,96.393 171.835 C 101.449 166.785,105.528 162.595,105.458 162.525 C 105.388 162.455,101.251 166.473,96.265 171.453 M116.801 237.900 C 116.802 238.065,117.133 238.741,117.536 239.402 C 118.565 241.089,120.400 246.756,120.400 248.246 C 120.400 248.929,120.514 250.323,120.654 251.344 L 120.909 253.200 195.765 253.200 L 270.621 253.200 271.270 249.300 C 272.115 244.228,272.488 242.883,273.753 240.345 C 274.329 239.189,274.800 238.098,274.800 237.921 C 274.800 237.745,239.250 237.600,195.800 237.600 C 152.350 237.600,116.801 237.735,116.801 237.900 M324.098 237.900 C 326.676 243.209,327.205 244.856,327.976 249.979 C 328.534 253.686,328.154 253.444,332.468 252.834 C 338.903 251.923,343.731 249.820,348.436 245.878 C 350.947 243.773,355.200 238.783,355.200 237.940 C 355.200 237.753,348.169 237.600,339.576 237.600 C 330.983 237.600,324.018 237.735,324.098 237.900 " stroke="none" fill="#dbe3e7" fill-rule="evenodd"></path><path id="path2" d="M179.600 0.269 C 177.950 0.346,176.240 0.579,175.800 0.785 C 175.360 0.991,173.740 1.261,172.200 1.385 C 166.401 1.851,164.805 2.085,165.023 2.437 C 165.206 2.733,161.477 3.047,160.270 2.837 C 160.089 2.806,160.055 2.965,160.194 3.190 C 160.351 3.444,159.838 3.600,158.847 3.600 C 157.967 3.600,157.136 3.780,157.000 4.000 C 156.864 4.220,156.043 4.400,155.176 4.400 C 154.309 4.400,153.600 4.580,153.600 4.800 C 153.600 5.020,152.689 5.200,151.576 5.200 C 150.329 5.200,149.648 5.353,149.800 5.600 C 150.003 5.928,148.612 6.135,147.345 5.966 C 147.204 5.947,146.972 6.121,146.829 6.353 C 146.686 6.585,146.003 6.818,145.312 6.870 C 144.621 6.923,144.144 7.109,144.251 7.283 C 144.359 7.457,143.672 7.603,142.724 7.606 C 141.584 7.610,141.187 7.731,141.552 7.962 C 141.931 8.202,141.557 8.374,140.352 8.513 C 139.388 8.624,138.330 8.797,138.000 8.897 C 136.868 9.241,135.799 9.659,135.105 10.029 C 134.723 10.233,134.059 10.400,133.629 10.400 C 133.199 10.400,132.734 10.583,132.596 10.807 C 132.458 11.030,132.177 11.109,131.972 10.983 C 131.768 10.856,131.600 10.938,131.600 11.164 C 131.600 11.390,131.345 11.477,131.032 11.357 C 130.720 11.237,130.000 11.444,129.432 11.816 C 128.865 12.188,128.397 12.336,128.394 12.146 C 128.391 11.956,128.256 11.980,128.094 12.200 C 127.665 12.783,125.861 13.748,126.188 13.220 C 126.337 12.978,125.811 13.145,125.018 13.590 C 124.225 14.036,123.255 14.400,122.863 14.400 C 122.471 14.400,121.764 14.760,121.292 15.200 C 120.820 15.640,120.077 16.000,119.640 16.000 C 119.204 16.000,118.736 16.180,118.600 16.400 C 118.464 16.620,118.003 16.800,117.576 16.800 C 117.149 16.800,116.799 16.935,116.797 17.100 C 116.793 17.506,114.814 18.400,113.920 18.400 C 113.524 18.400,113.200 18.580,113.200 18.800 C 113.200 19.020,112.919 19.200,112.576 19.200 C 112.207 19.200,112.069 19.388,112.238 19.662 C 112.420 19.956,112.347 20.015,112.037 19.823 C 111.769 19.657,111.246 19.780,110.875 20.095 C 110.074 20.775,107.540 21.835,107.070 21.685 C 106.889 21.627,106.855 21.765,106.994 21.990 C 107.133 22.216,106.967 22.400,106.624 22.400 C 106.281 22.400,106.000 22.580,106.000 22.800 C 106.000 23.020,105.584 23.200,105.075 23.200 C 104.567 23.200,103.764 23.560,103.292 24.000 C 102.820 24.440,102.246 24.800,102.017 24.800 C 101.788 24.800,101.600 24.991,101.600 25.224 C 101.600 25.457,101.440 25.549,101.245 25.428 C 101.050 25.307,100.677 25.466,100.416 25.781 C 100.155 26.095,99.685 26.254,99.371 26.133 C 99.057 26.013,98.800 26.114,98.800 26.357 C 98.800 26.601,98.549 26.800,98.243 26.800 C 97.936 26.800,97.578 27.081,97.446 27.425 C 97.314 27.769,97.035 27.946,96.827 27.817 C 96.619 27.688,96.290 27.868,96.095 28.217 C 95.900 28.565,95.482 28.888,95.167 28.934 C 94.852 28.981,94.161 29.322,93.632 29.692 C 93.103 30.063,92.515 30.271,92.325 30.154 C 92.135 30.036,92.030 30.170,92.090 30.451 C 92.151 30.731,91.570 31.185,90.800 31.458 C 90.030 31.731,89.575 31.965,89.789 31.977 C 90.279 32.006,88.720 33.117,87.962 33.279 C 87.653 33.346,87.165 33.715,86.877 34.100 C 86.590 34.485,86.045 34.800,85.666 34.800 C 85.287 34.800,84.717 35.160,84.400 35.600 C 84.083 36.040,83.636 36.400,83.408 36.400 C 83.179 36.400,82.768 36.760,82.493 37.200 C 82.218 37.640,81.725 38.000,81.397 38.000 C 81.068 38.000,80.800 38.180,80.800 38.400 C 80.800 38.620,80.440 38.800,80.000 38.800 C 79.560 38.800,79.200 38.952,79.200 39.139 C 79.200 39.780,77.705 41.200,77.029 41.200 C 76.657 41.200,76.458 41.371,76.588 41.580 C 76.717 41.789,76.457 42.155,76.011 42.394 C 75.565 42.633,75.200 42.697,75.200 42.537 C 75.200 42.377,74.724 42.820,74.142 43.523 C 73.560 44.225,72.750 44.800,72.342 44.800 C 71.934 44.800,71.600 45.081,71.600 45.424 C 71.600 45.767,71.463 45.962,71.295 45.859 C 71.128 45.755,70.373 46.375,69.619 47.235 C 68.865 48.096,67.982 48.800,67.657 48.800 C 67.332 48.800,67.178 48.911,67.314 49.048 C 67.685 49.418,66.558 50.400,65.762 50.400 C 65.380 50.400,65.176 50.509,65.309 50.642 C 65.559 50.892,63.845 52.800,63.371 52.800 C 63.029 52.800,60.815 55.304,60.806 55.700 C 60.803 55.865,60.570 56.000,60.288 56.000 C 60.007 56.000,59.512 56.382,59.188 56.849 C 58.447 57.919,57.919 58.447,56.849 59.188 C 56.382 59.512,56.000 60.007,56.000 60.288 C 56.000 60.570,55.865 60.803,55.700 60.806 C 55.304 60.815,52.800 63.029,52.800 63.371 C 52.800 63.845,50.892 65.559,50.642 65.309 C 50.509 65.176,50.400 65.380,50.400 65.762 C 50.400 66.558,49.418 67.685,49.048 67.314 C 48.911 67.178,48.800 67.332,48.800 67.657 C 48.800 67.982,48.096 68.865,47.235 69.619 C 46.375 70.373,45.755 71.128,45.859 71.295 C 45.962 71.463,45.767 71.600,45.424 71.600 C 45.081 71.600,44.800 71.934,44.800 72.342 C 44.800 72.750,44.225 73.560,43.523 74.142 C 42.820 74.724,42.377 75.200,42.537 75.200 C 42.697 75.200,42.633 75.565,42.394 76.011 C 42.155 76.457,41.789 76.717,41.580 76.588 C 41.371 76.458,41.200 76.657,41.200 77.029 C 41.200 77.705,39.780 79.200,39.139 79.200 C 38.952 79.200,38.800 79.560,38.800 80.000 C 38.800 80.440,38.620 80.800,38.400 80.800 C 38.180 80.800,38.000 81.068,38.000 81.397 C 38.000 81.725,37.640 82.218,37.200 82.493 C 36.760 82.768,36.400 83.179,36.400 83.408 C 36.400 83.636,36.040 84.083,35.600 84.400 C 35.160 84.717,34.800 85.287,34.800 85.666 C 34.800 86.045,34.485 86.590,34.100 86.877 C 33.715 87.165,33.346 87.653,33.279 87.962 C 33.117 88.720,32.006 90.279,31.977 89.789 C 31.965 89.575,31.731 90.030,31.458 90.800 C 31.185 91.570,30.731 92.151,30.451 92.090 C 30.170 92.030,30.036 92.135,30.154 92.325 C 30.271 92.515,30.063 93.103,29.692 93.632 C 29.322 94.161,28.981 94.852,28.934 95.167 C 28.888 95.482,28.565 95.900,28.217 96.095 C 27.868 96.290,27.688 96.619,27.817 96.827 C 27.946 97.035,27.769 97.314,27.425 97.446 C 27.081 97.578,26.800 97.936,26.800 98.243 C 26.800 98.549,26.601 98.800,26.357 98.800 C 26.114 98.800,26.013 99.057,26.133 99.371 C 26.254 99.685,26.095 100.155,25.781 100.416 C 25.466 100.677,25.307 101.050,25.428 101.245 C 25.549 101.440,25.457 101.600,25.224 101.600 C 24.991 101.600,24.800 101.788,24.800 102.017 C 24.800 102.246,24.440 102.820,24.000 103.292 C 23.560 103.764,23.200 104.567,23.200 105.075 C 23.200 105.584,23.020 106.000,22.800 106.000 C 22.580 106.000,22.400 106.281,22.400 106.624 C 22.400 106.967,22.216 107.133,21.990 106.994 C 21.765 106.855,21.627 106.889,21.685 107.070 C 21.835 107.540,20.775 110.074,20.095 110.875 C 19.780 111.246,19.657 111.769,19.823 112.037 C 20.015 112.347,19.956 112.420,19.662 112.238 C 19.388 112.069,19.200 112.207,19.200 112.576 C 19.200 112.919,19.020 113.200,18.800 113.200 C 18.580 113.200,18.400 113.524,18.400 113.920 C 18.400 114.814,17.506 116.793,17.100 116.797 C 16.935 116.799,16.800 117.149,16.800 117.576 C 16.800 118.003,16.620 118.464,16.400 118.600 C 16.180 118.736,16.000 119.204,16.000 119.640 C 16.000 120.077,15.640 120.820,15.200 121.292 C 14.760 121.764,14.400 122.471,14.400 122.863 C 14.400 123.255,14.036 124.225,13.590 125.018 C 13.145 125.811,12.978 126.337,13.220 126.188 C 13.748 125.861,12.783 127.665,12.200 128.094 C 11.980 128.256,11.956 128.391,12.146 128.394 C 12.336 128.397,12.188 128.865,11.816 129.432 C 11.444 130.000,11.237 130.720,11.357 131.032 C 11.477 131.345,11.390 131.600,11.164 131.600 C 10.938 131.600,10.856 131.768,10.983 131.972 C 11.109 132.177,11.030 132.458,10.807 132.596 C 10.583 132.734,10.400 133.199,10.400 133.629 C 10.400 134.059,10.233 134.723,10.029 135.105 C 9.659 135.799,9.241 136.868,8.897 138.000 C 8.797 138.330,8.624 139.388,8.513 140.352 C 8.374 141.557,8.202 141.931,7.962 141.552 C 7.731 141.187,7.610 141.584,7.606 142.724 C 7.603 143.672,7.457 144.359,7.283 144.251 C 7.109 144.144,6.923 144.621,6.870 145.312 C 6.818 146.003,6.585 146.686,6.353 146.829 C 6.121 146.972,5.947 147.204,5.966 147.345 C 6.135 148.612,5.928 150.003,5.600 149.800 C 5.353 149.648,5.200 150.329,5.200 151.576 C 5.200 152.689,5.020 153.600,4.800 153.600 C 4.580 153.600,4.400 154.309,4.400 155.176 C 4.400 156.043,4.220 156.864,4.000 157.000 C 3.780 157.136,3.600 157.967,3.600 158.847 C 3.600 159.838,3.444 160.351,3.190 160.194 C 2.965 160.055,2.806 160.089,2.837 160.270 C 3.047 161.477,2.733 165.206,2.437 165.023 C 2.085 164.805,1.851 166.401,1.385 172.200 C 1.261 173.740,0.944 175.432,0.680 175.960 C -0.014 177.349,-0.005 221.530,0.690 223.800 C 0.959 224.680,1.284 226.660,1.411 228.200 C 1.973 235.007,2.078 235.722,2.432 235.161 C 2.664 234.796,2.790 235.393,2.794 236.876 C 2.797 238.128,2.980 239.264,3.200 239.400 C 3.420 239.536,3.600 240.346,3.600 241.200 C 3.600 242.054,3.780 242.864,4.000 243.000 C 4.220 243.136,4.400 243.942,4.400 244.790 C 4.400 245.639,4.570 246.393,4.779 246.467 C 4.987 246.540,5.200 247.445,5.252 248.478 C 5.304 249.511,5.494 250.265,5.674 250.155 C 5.938 249.991,6.117 251.524,5.966 252.655 C 5.947 252.796,6.121 253.028,6.353 253.171 C 6.585 253.314,6.818 253.997,6.870 254.688 C 6.923 255.379,7.109 255.856,7.283 255.749 C 7.457 255.641,7.600 256.103,7.600 256.776 C 7.600 257.449,7.757 258.000,7.948 258.000 C 8.140 258.000,8.424 258.855,8.580 259.900 C 9.001 262.733,9.063 262.982,9.710 264.449 C 10.600 266.465,11.178 268.103,11.317 269.000 C 11.621 270.964,12.900 272.867,13.760 272.636 C 14.222 272.512,30.946 272.408,50.924 272.405 C 74.360 272.402,87.162 272.262,87.007 272.011 C 86.874 271.797,86.020 271.421,85.108 271.175 C 80.907 270.044,76.018 265.637,73.600 260.800 C 73.380 260.360,73.020 259.642,72.800 259.205 C 72.580 258.768,72.400 258.059,72.400 257.629 C 72.400 257.199,72.220 256.736,72.000 256.600 C 71.780 256.464,71.600 255.851,71.600 255.239 L 71.600 254.124 65.900 253.864 C 62.765 253.720,56.742 253.602,52.515 253.601 C 41.172 253.599,36.724 251.457,33.538 244.463 C 32.127 241.366,31.255 228.907,32.400 228.200 C 32.620 228.064,32.802 226.748,32.804 225.276 C 32.820 213.020,42.208 199.096,54.315 193.370 C 58.928 191.189,61.180 190.585,72.800 188.416 C 82.571 186.592,81.331 187.164,85.600 182.509 C 95.987 171.181,109.637 158.233,119.053 150.776 C 124.337 146.591,137.451 137.600,138.271 137.600 C 138.373 137.600,139.208 137.093,140.128 136.473 C 144.056 133.825,153.611 129.772,158.725 128.586 C 162.391 127.735,337.869 127.708,341.060 128.558 C 349.832 130.894,353.488 136.507,354.375 149.000 C 354.827 155.365,355.288 161.650,356.004 171.200 C 356.210 173.950,356.569 179.170,356.800 182.800 C 357.031 186.430,357.301 190.152,357.399 191.071 C 357.497 191.998,357.398 192.801,357.175 192.875 C 356.954 192.949,357.904 193.007,359.287 193.004 L 361.800 193.000 361.911 209.000 C 362.039 227.335,362.076 226.943,360.241 226.729 C 358.916 226.574,358.417 227.380,359.400 228.088 C 359.660 228.275,359.625 228.657,359.300 229.182 C 359.025 229.626,358.800 230.360,358.800 230.814 C 358.800 231.268,358.440 232.384,358.000 233.294 C 357.560 234.205,357.200 235.146,357.200 235.386 C 357.200 235.626,356.705 236.389,356.100 237.083 C 355.495 237.776,354.205 239.457,353.233 240.817 C 349.773 245.661,343.175 250.239,337.200 251.944 C 334.694 252.659,330.221 253.246,325.160 253.526 L 320.200 253.800 320.076 255.000 C 319.356 261.996,314.382 267.801,305.800 271.660 C 304.368 272.304,306.744 272.345,355.254 272.499 L 387.108 272.600 387.941 271.000 C 388.399 270.120,388.853 268.950,388.951 268.400 C 389.163 267.203,389.484 266.254,390.283 264.455 C 390.878 263.114,391.063 262.343,391.469 259.502 C 391.587 258.678,391.845 258.104,392.042 258.226 C 392.239 258.348,392.400 257.796,392.400 257.000 C 392.400 256.204,392.543 255.641,392.717 255.749 C 392.891 255.856,393.077 255.379,393.130 254.688 C 393.182 253.997,393.415 253.314,393.647 253.171 C 393.879 253.028,394.053 252.796,394.034 252.655 C 393.884 251.535,394.060 249.990,394.320 250.151 C 394.496 250.259,394.685 249.685,394.739 248.875 C 394.794 248.065,395.010 247.230,395.219 247.021 C 395.429 246.811,395.600 245.866,395.600 244.920 C 395.600 243.974,395.780 243.200,396.000 243.200 C 396.220 243.200,396.400 242.379,396.400 241.376 C 396.400 240.233,396.553 239.647,396.810 239.806 C 397.035 239.945,397.194 239.911,397.163 239.730 C 396.917 238.314,397.267 234.685,397.600 235.200 C 397.927 235.707,398.279 232.168,398.047 230.700 C 398.021 230.535,398.180 230.400,398.400 230.400 C 398.626 230.400,398.800 229.267,398.800 227.800 C 398.800 226.370,398.958 225.200,399.151 225.200 C 400.084 225.200,400.102 175.398,399.169 174.791 C 398.993 174.677,398.808 173.462,398.759 172.091 C 398.709 170.721,398.518 169.600,398.334 169.600 C 398.150 169.600,398.021 169.465,398.047 169.300 C 398.279 167.832,397.927 164.293,397.600 164.800 C 397.325 165.226,397.210 164.741,397.206 163.124 C 397.203 161.872,397.020 160.736,396.800 160.600 C 396.580 160.464,396.400 159.654,396.400 158.800 C 396.400 157.946,396.220 157.136,396.000 157.000 C 395.780 156.864,395.600 155.943,395.600 154.953 C 395.600 153.855,395.444 153.249,395.200 153.400 C 394.959 153.549,394.800 153.012,394.800 152.047 C 394.800 151.167,394.620 150.336,394.400 150.200 C 394.180 150.064,394.000 149.258,394.000 148.410 C 394.000 147.561,393.826 146.807,393.613 146.733 C 393.400 146.660,393.182 146.027,393.130 145.328 C 393.077 144.628,392.891 144.144,392.717 144.251 C 392.543 144.359,392.400 143.897,392.400 143.224 C 392.400 142.551,392.220 142.000,392.000 142.000 C 391.780 142.000,391.600 141.583,391.600 141.073 C 391.600 140.563,391.298 139.168,390.928 137.973 C 390.559 136.778,390.297 135.575,390.346 135.300 C 390.395 135.025,390.247 134.800,390.018 134.800 C 389.788 134.800,389.600 134.384,389.600 133.876 C 389.600 133.369,389.350 132.611,389.044 132.193 C 388.739 131.775,388.573 131.216,388.675 130.949 C 388.777 130.683,388.576 130.031,388.229 129.500 C 387.882 128.970,387.718 128.416,387.865 128.268 C 388.013 128.121,387.923 128.000,387.667 128.000 C 387.410 128.000,387.200 127.539,387.200 126.976 C 387.200 126.396,387.027 126.060,386.800 126.200 C 386.574 126.340,386.400 126.012,386.400 125.447 C 386.400 124.897,386.220 124.336,386.000 124.200 C 385.780 124.064,385.600 123.603,385.600 123.176 C 385.600 122.749,385.409 122.400,385.176 122.400 C 384.943 122.400,384.855 122.235,384.980 122.032 C 385.105 121.830,384.936 121.393,384.604 121.061 C 384.272 120.729,384.000 120.180,384.000 119.841 C 384.000 119.502,383.640 118.583,383.200 117.800 C 382.760 117.017,382.400 116.111,382.400 115.788 C 382.400 115.465,382.220 115.200,382.000 115.200 C 381.780 115.200,381.600 114.840,381.600 114.400 C 381.600 113.960,381.443 113.600,381.250 113.600 C 381.058 113.600,380.796 113.082,380.670 112.448 C 380.543 111.815,380.160 111.018,379.820 110.677 C 379.479 110.336,379.200 109.885,379.200 109.674 C 379.200 108.974,378.125 107.208,377.861 107.473 C 377.717 107.616,377.600 107.343,377.600 106.867 C 377.600 106.390,377.420 106.000,377.200 106.000 C 376.980 106.000,376.800 105.584,376.800 105.075 C 376.800 104.567,376.462 103.788,376.049 103.345 C 375.636 102.901,375.162 102.111,374.996 101.588 C 374.830 101.065,374.493 100.410,374.247 100.133 C 373.351 99.122,372.987 98.573,372.295 97.200 C 371.908 96.430,371.246 95.260,370.825 94.600 C 370.403 93.940,370.045 93.085,370.029 92.700 C 370.013 92.315,369.784 92.045,369.520 92.100 C 369.255 92.155,368.840 91.611,368.596 90.890 C 368.352 90.170,368.029 89.705,367.877 89.857 C 367.724 90.009,367.600 89.833,367.600 89.467 C 367.600 89.100,367.420 88.800,367.200 88.800 C 366.980 88.800,366.800 88.557,366.800 88.259 C 366.800 87.962,366.260 87.154,365.600 86.463 C 364.940 85.772,364.400 84.936,364.400 84.604 C 364.400 84.272,364.220 84.000,364.000 84.000 C 363.780 84.000,363.600 83.749,363.600 83.443 C 363.600 83.136,363.304 82.772,362.943 82.633 C 362.581 82.495,362.387 82.280,362.511 82.156 C 362.634 82.032,362.165 81.412,361.468 80.777 C 360.770 80.143,360.432 79.618,360.716 79.612 C 361.137 79.602,361.137 79.497,360.716 79.042 C 360.432 78.735,360.065 78.566,359.900 78.666 C 359.735 78.765,359.600 78.556,359.600 78.200 C 359.600 77.844,359.420 77.664,359.200 77.800 C 358.833 78.027,358.622 77.480,358.763 76.670 C 358.794 76.489,358.654 76.443,358.452 76.568 C 358.092 76.790,357.410 75.696,357.536 75.100 C 357.571 74.935,357.319 74.800,356.976 74.800 C 356.633 74.800,356.444 74.653,356.555 74.473 C 356.666 74.293,356.407 73.893,355.979 73.585 C 355.550 73.276,355.200 72.812,355.200 72.554 C 355.200 72.297,354.904 71.972,354.543 71.833 C 354.181 71.695,353.980 71.486,354.096 71.370 C 354.212 71.254,353.327 70.179,352.129 68.981 C 350.931 67.783,350.065 66.618,350.205 66.392 C 350.345 66.165,350.288 66.030,350.078 66.090 C 349.868 66.151,349.233 65.705,348.667 65.100 C 348.101 64.495,347.701 64.000,347.778 64.000 C 347.854 64.000,346.673 62.785,345.151 61.300 C 341.393 57.631,340.914 57.156,338.514 54.719 C 335.027 51.179,334.153 50.400,333.667 50.400 C 333.410 50.400,333.200 50.124,333.200 49.787 C 333.200 49.451,332.885 49.054,332.500 48.906 C 332.115 48.759,331.199 48.089,330.465 47.419 C 329.730 46.749,328.871 46.054,328.556 45.875 C 328.241 45.697,328.088 45.382,328.215 45.175 C 328.343 44.969,328.103 44.800,327.682 44.800 C 327.261 44.800,326.485 44.280,325.958 43.644 C 325.431 43.008,324.867 42.463,324.704 42.433 C 323.801 42.266,323.233 41.871,323.432 41.548 C 323.557 41.346,323.511 41.206,323.330 41.237 C 322.520 41.378,321.973 41.167,322.200 40.800 C 322.336 40.580,322.179 40.400,321.851 40.400 C 321.522 40.400,321.139 40.037,320.998 39.594 C 320.857 39.151,320.599 38.877,320.423 38.986 C 320.247 39.095,319.735 38.872,319.285 38.492 C 317.101 36.644,316.763 36.400,316.395 36.400 C 316.178 36.400,316.000 36.220,316.000 36.000 C 316.000 35.780,315.728 35.600,315.396 35.600 C 315.064 35.600,314.228 35.060,313.537 34.400 C 312.846 33.740,312.048 33.200,311.763 33.200 C 311.478 33.200,310.965 32.800,310.623 32.311 C 310.207 31.717,309.998 31.618,309.994 32.011 C 309.990 32.395,309.886 32.447,309.694 32.160 C 309.532 31.918,308.990 31.504,308.489 31.240 C 307.984 30.974,307.699 30.563,307.851 30.318 C 308.008 30.063,307.942 29.989,307.694 30.142 C 307.458 30.288,306.993 30.136,306.661 29.804 C 306.329 29.472,305.845 29.200,305.586 29.200 C 305.327 29.200,304.433 28.660,303.600 28.000 C 302.767 27.340,301.886 26.800,301.642 26.800 C 301.399 26.800,301.200 26.640,301.200 26.443 C 301.200 26.095,299.297 25.404,298.700 25.534 C 298.535 25.570,298.400 25.420,298.400 25.200 C 298.400 24.980,298.212 24.800,297.983 24.800 C 297.754 24.800,297.180 24.440,296.708 24.000 C 296.236 23.560,295.433 23.200,294.925 23.200 C 294.416 23.200,294.000 23.020,294.000 22.800 C 294.000 22.580,293.640 22.400,293.200 22.400 C 292.760 22.400,292.400 22.232,292.400 22.026 C 292.400 21.820,291.780 21.427,291.021 21.153 C 290.263 20.879,289.734 20.507,289.845 20.327 C 290.022 20.041,288.979 19.836,288.691 20.100 C 288.630 20.155,288.147 19.795,287.615 19.300 C 287.084 18.805,286.233 18.400,285.725 18.400 C 285.216 18.400,284.800 18.220,284.800 18.000 C 284.800 17.780,284.564 17.600,284.275 17.600 C 283.986 17.600,283.005 17.240,282.094 16.800 C 281.184 16.360,280.242 16.000,280.003 16.000 C 279.763 16.000,279.180 15.640,278.708 15.200 C 278.236 14.760,277.568 14.397,277.225 14.394 C 276.179 14.384,273.575 13.359,273.863 13.070 C 274.012 12.922,273.771 12.800,273.328 12.800 C 272.885 12.800,271.910 12.492,271.161 12.115 C 270.413 11.737,269.440 11.376,269.000 11.311 C 268.109 11.180,266.484 10.608,264.449 9.710 C 262.982 9.063,262.733 9.001,259.900 8.580 C 258.855 8.424,258.000 8.140,258.000 7.948 C 258.000 7.757,257.449 7.600,256.776 7.600 C 256.103 7.600,255.641 7.457,255.749 7.283 C 255.856 7.109,255.379 6.923,254.688 6.870 C 253.997 6.818,253.314 6.585,253.171 6.353 C 253.028 6.121,252.796 5.947,252.655 5.966 C 251.524 6.117,249.991 5.938,250.155 5.674 C 250.265 5.494,249.511 5.304,248.478 5.252 C 247.445 5.200,246.540 4.987,246.467 4.779 C 246.393 4.570,245.639 4.400,244.790 4.400 C 243.942 4.400,243.136 4.220,243.000 4.000 C 242.864 3.780,242.054 3.600,241.200 3.600 C 240.346 3.600,239.536 3.420,239.400 3.200 C 239.264 2.980,238.128 2.797,236.876 2.794 C 235.393 2.790,234.796 2.664,235.161 2.432 C 235.720 2.079,234.996 1.977,227.600 1.363 C 225.950 1.226,224.240 0.916,223.800 0.673 C 223.032 0.250,187.037 -0.079,179.600 0.269 M116.700 253.498 L 112.800 253.629 112.800 254.991 C 112.800 255.740,112.620 256.464,112.400 256.600 C 112.180 256.736,112.000 257.199,112.000 257.628 C 112.000 258.517,110.402 262.131,109.919 262.333 C 109.743 262.407,109.600 262.630,109.600 262.829 C 109.600 263.371,108.439 264.769,106.134 267.000 C 104.273 268.802,102.944 269.610,98.400 271.704 C 97.108 272.299,104.587 272.350,195.800 272.362 C 282.755 272.373,294.507 272.304,293.824 271.787 C 293.396 271.464,292.784 271.200,292.462 271.200 C 290.417 271.200,284.653 266.713,282.443 263.400 C 280.867 261.037,278.800 255.816,278.800 254.196 C 278.800 253.324,139.763 252.725,116.700 253.498 M14.551 277.300 C 14.706 278.265,15.543 279.390,15.867 279.067 C 16.046 278.887,15.887 278.569,15.513 278.359 C 15.137 278.149,14.934 277.716,15.059 277.389 C 15.184 277.065,15.102 276.800,14.878 276.800 C 14.654 276.800,14.507 277.025,14.551 277.300 M20.806 290.300 C 20.824 291.177,21.588 291.759,21.594 290.900 C 21.597 290.405,21.420 290.000,21.200 290.000 C 20.980 290.000,20.803 290.135,20.806 290.300 M377.606 291.900 C 377.624 292.777,378.388 293.359,378.394 292.500 C 378.397 292.005,378.220 291.600,378.000 291.600 C 377.780 291.600,377.603 291.735,377.606 291.900 M23.357 295.388 C 23.502 296.375,24.000 296.590,24.000 295.667 C 24.000 295.190,23.836 294.800,23.635 294.800 C 23.435 294.800,23.310 295.065,23.357 295.388 M376.000 295.567 C 376.000 295.988,375.775 296.414,375.500 296.512 C 375.225 296.610,375.137 296.837,375.304 297.016 C 375.644 297.379,376.767 296.079,376.787 295.300 C 376.794 295.025,376.620 294.800,376.400 294.800 C 376.180 294.800,376.000 295.145,376.000 295.567 M369.738 306.603 C 369.415 307.298,369.404 307.679,369.700 307.862 C 369.933 308.006,370.008 307.936,369.866 307.707 C 369.725 307.478,369.877 307.068,370.204 306.796 C 370.835 306.273,371.003 305.598,370.500 305.603 C 370.335 305.605,369.992 306.055,369.738 306.603 M362.820 316.811 C 362.280 317.685,361.695 318.400,361.520 318.400 C 361.344 318.400,361.201 318.625,361.202 318.900 C 361.203 319.175,361.743 318.825,362.402 318.122 C 363.061 317.419,363.600 316.654,363.600 316.422 C 363.600 316.190,363.780 316.000,364.000 316.000 C 364.220 316.000,364.400 315.820,364.400 315.600 C 364.400 314.785,363.773 315.266,362.820 316.811 M39.224 319.200 C 38.901 319.959,38.973 320.672,39.414 321.084 C 39.817 321.460,39.978 321.434,40.159 320.961 C 40.287 320.630,40.226 320.460,40.024 320.585 C 39.822 320.710,39.579 320.404,39.483 319.906 C 39.387 319.408,39.271 319.090,39.224 319.200 M360.400 319.776 C 360.400 320.119,360.220 320.400,360.000 320.400 C 359.780 320.400,359.600 320.670,359.600 321.000 C 359.600 321.330,359.780 321.600,360.000 321.600 C 360.220 321.600,360.355 321.375,360.300 321.100 C 360.245 320.825,360.425 320.645,360.700 320.700 C 361.294 320.819,361.376 319.756,360.800 319.400 C 360.580 319.264,360.400 319.433,360.400 319.776 M49.294 332.917 C 49.675 333.226,49.870 333.596,49.727 333.740 C 49.584 333.883,49.677 334.000,49.933 334.000 C 50.720 334.000,50.452 333.253,49.500 332.792 C 48.692 332.401,48.671 332.414,49.294 332.917 M350.104 332.994 C 349.831 333.304,349.750 333.646,349.924 333.753 C 350.098 333.860,350.457 333.600,350.723 333.174 C 351.280 332.283,350.842 332.156,350.104 332.994 M343.200 340.000 C 342.693 340.440,342.457 340.800,342.677 340.800 C 342.896 340.800,343.402 340.440,343.800 340.000 C 344.198 339.560,344.434 339.200,344.323 339.200 C 344.213 339.200,343.707 339.560,343.200 340.000 M320.480 360.080 C 319.896 360.664,319.858 361.200,320.400 361.200 C 320.620 361.200,320.755 360.975,320.700 360.700 C 320.645 360.425,320.825 360.245,321.100 360.300 C 321.375 360.355,321.600 360.220,321.600 360.000 C 321.600 359.458,321.064 359.496,320.480 360.080 M306.700 369.757 C 306.315 370.049,306.000 370.431,306.000 370.606 C 306.000 370.781,306.330 370.626,306.732 370.261 C 307.135 369.897,307.614 369.734,307.797 369.899 C 307.979 370.065,307.999 369.975,307.841 369.700 C 307.496 369.102,307.567 369.099,306.700 369.757 M103.232 375.476 C 103.198 375.984,103.877 376.529,104.700 376.653 C 104.975 376.695,105.200 376.565,105.200 376.365 C 105.200 376.164,104.855 376.000,104.433 376.000 C 104.012 376.000,103.576 375.775,103.465 375.500 C 103.319 375.139,103.254 375.133,103.232 375.476 M296.400 375.600 C 296.400 375.820,296.040 376.000,295.600 376.000 C 295.160 376.000,294.800 376.180,294.800 376.400 C 294.800 376.957,295.665 376.877,296.500 376.243 C 297.279 375.652,297.409 375.200,296.800 375.200 C 296.580 375.200,296.400 375.380,296.400 375.600 M144.000 392.775 C 144.000 392.981,144.360 393.123,144.800 393.090 C 145.240 393.057,145.600 392.888,145.600 392.715 C 145.600 392.542,145.240 392.400,144.800 392.400 C 144.360 392.400,144.000 392.569,144.000 392.775 M254.800 392.800 C 254.800 393.020,255.070 393.200,255.400 393.200 C 255.730 393.200,256.000 393.020,256.000 392.800 C 256.000 392.580,255.730 392.400,255.400 392.400 C 255.070 392.400,254.800 392.580,254.800 392.800 M252.000 393.600 C 252.000 393.820,252.270 394.000,252.600 394.000 C 252.930 394.000,253.200 393.820,253.200 393.600 C 253.200 393.380,252.930 393.200,252.600 393.200 C 252.270 393.200,252.000 393.380,252.000 393.600 M249.120 394.480 C 249.493 394.853,249.707 394.853,250.080 394.480 C 250.453 394.107,250.347 394.000,249.600 394.000 C 248.853 394.000,248.747 394.107,249.120 394.480 M160.720 396.880 C 161.093 397.253,161.307 397.253,161.680 396.880 C 162.053 396.507,161.947 396.400,161.200 396.400 C 160.453 396.400,160.347 396.507,160.720 396.880 M238.000 396.800 C 238.000 397.020,238.495 397.197,239.100 397.194 C 239.957 397.189,240.068 397.102,239.600 396.800 C 238.817 396.294,238.000 396.294,238.000 396.800 M174.801 399.100 C 174.801 399.265,175.427 399.421,176.192 399.447 C 176.956 399.473,177.486 399.338,177.367 399.147 C 177.105 398.723,174.800 398.681,174.801 399.100 M222.400 399.105 C 222.400 399.272,223.030 399.420,223.800 399.433 C 224.570 399.446,225.200 399.309,225.200 399.128 C 225.200 398.948,224.570 398.800,223.800 398.800 C 223.030 398.800,222.400 398.937,222.400 399.105 " stroke="none" fill="#fbd45c" fill-rule="evenodd"></path><path id="path3" d="M358.600 193.057 C 359.260 193.146,360.205 193.308,360.700 193.417 L 361.600 193.615 361.600 209.559 C 361.600 226.332,361.629 226.061,359.800 226.511 C 359.272 226.640,359.439 226.723,360.292 226.754 C 362.079 226.818,362.038 227.261,361.911 209.000 L 361.800 193.000 359.600 192.948 C 358.390 192.919,357.940 192.968,358.600 193.057 M39.000 250.965 C 39.660 251.532,40.365 251.997,40.567 251.998 C 41.001 252.000,40.996 251.996,39.200 250.837 L 37.800 249.934 39.000 250.965 M55.600 253.592 C 61.650 253.757,67.725 253.916,69.100 253.946 C 71.588 254.000,71.600 254.006,71.600 255.176 C 71.600 255.823,71.777 256.462,71.994 256.596 C 72.439 256.871,72.082 254.409,71.599 253.872 C 71.437 253.692,65.296 253.488,57.952 253.418 L 44.600 253.292 55.600 253.592 M114.713 253.495 C 115.876 253.576,117.676 253.576,118.713 253.493 C 119.751 253.411,118.800 253.345,116.600 253.346 C 114.400 253.347,113.551 253.414,114.713 253.495 M274.858 253.498 L 278.716 253.628 279.032 255.114 C 279.273 256.249,279.383 256.392,279.499 255.721 C 279.865 253.593,279.107 253.193,274.886 253.284 L 271.000 253.367 274.858 253.498 M322.512 253.495 C 323.564 253.577,325.184 253.576,326.112 253.492 C 327.040 253.408,326.180 253.341,324.200 253.342 C 322.220 253.343,321.460 253.412,322.512 253.495 M319.867 253.867 C 319.720 254.013,319.597 254.598,319.594 255.167 C 319.587 256.355,318.741 258.932,317.567 261.337 C 316.779 262.950,316.778 262.971,317.545 262.013 C 318.442 260.892,319.560 257.816,319.986 255.300 C 320.290 253.501,320.286 253.448,319.867 253.867 M112.460 254.667 C 112.427 255.144,112.284 255.864,112.141 256.267 C 111.942 256.831,111.995 256.896,112.372 256.549 C 112.642 256.301,112.785 255.581,112.691 254.949 C 112.570 254.139,112.502 254.056,112.460 254.667 M72.428 257.876 C 72.413 258.358,72.580 258.864,72.800 259.000 C 73.273 259.292,73.273 258.901,72.800 257.800 C 72.469 257.029,72.455 257.031,72.428 257.876 M73.209 260.300 C 73.214 260.465,73.585 261.050,74.033 261.600 L 74.848 262.600 74.214 261.300 C 73.611 260.065,73.189 259.645,73.209 260.300 M281.200 261.428 C 281.200 263.420,291.139 272.195,292.197 271.136 C 292.283 271.051,291.351 270.456,290.126 269.815 C 287.331 268.352,283.885 265.228,282.548 262.947 C 281.594 261.320,281.200 260.876,281.200 261.428 M313.959 265.956 C 312.233 267.720,310.430 269.093,308.759 269.913 C 307.351 270.605,306.470 271.168,306.800 271.166 C 308.592 271.154,315.254 266.139,316.453 263.900 C 317.003 262.874,316.854 262.997,313.959 265.956 M106.327 266.336 C 105.027 267.651,103.026 269.136,101.652 269.808 C 100.330 270.454,99.320 271.054,99.408 271.141 C 100.030 271.763,106.558 267.226,108.044 265.138 C 109.190 263.529,108.910 263.724,106.327 266.336 M77.200 266.106 C 77.200 266.194,77.965 266.874,78.900 267.617 C 79.835 268.360,80.346 268.652,80.036 268.265 C 79.451 267.537,77.200 265.823,77.200 266.106 M80.947 269.114 C 81.199 269.523,84.807 271.326,84.995 271.138 C 85.074 271.059,84.152 270.500,82.946 269.896 C 81.739 269.292,80.840 268.940,80.947 269.114 M86.600 271.712 C 87.235 272.099,79.732 272.241,50.333 272.400 C 14.402 272.594,12.113 272.673,13.127 273.687 C 13.387 273.947,13.600 274.495,13.600 274.904 C 13.600 275.313,13.780 275.536,14.000 275.400 C 14.220 275.264,14.400 275.523,14.400 275.976 C 14.400 276.429,14.580 276.800,14.800 276.800 C 15.020 276.800,15.200 276.991,15.200 277.224 C 15.200 277.457,14.975 277.533,14.700 277.393 C 14.425 277.253,14.640 277.525,15.179 277.997 C 15.749 278.498,15.991 278.969,15.759 279.128 C 15.512 279.297,15.693 280.057,16.237 281.131 C 16.762 282.170,17.197 282.650,17.325 282.331 C 17.441 282.039,17.551 282.295,17.568 282.900 C 17.586 283.505,17.780 284.000,18.000 284.000 C 18.220 284.000,18.379 284.135,18.353 284.300 C 18.196 285.291,18.460 286.410,18.800 286.200 C 19.147 285.986,19.409 287.143,19.237 288.130 C 19.206 288.311,19.345 288.357,19.547 288.232 C 19.749 288.108,20.027 288.454,20.165 289.003 C 20.303 289.551,20.682 290.000,21.008 290.000 C 21.421 290.000,21.600 290.435,21.600 291.437 C 21.600 292.538,21.787 292.924,22.400 293.084 C 22.840 293.199,23.200 293.463,23.200 293.670 C 23.200 293.878,22.975 293.933,22.700 293.793 C 22.425 293.653,22.605 293.897,23.100 294.334 C 23.595 294.771,24.000 295.555,24.000 296.076 C 24.000 296.597,24.356 297.280,24.791 297.594 C 25.373 298.013,25.452 298.246,25.091 298.476 C 24.706 298.721,24.708 298.789,25.100 298.794 C 25.375 298.797,25.600 299.151,25.600 299.580 C 25.600 300.009,25.836 300.504,26.123 300.680 C 26.411 300.856,26.882 301.583,27.170 302.295 C 27.458 303.007,27.843 303.497,28.026 303.384 C 28.210 303.270,28.578 303.588,28.845 304.089 C 29.304 304.949,29.288 304.967,28.565 304.407 C 27.855 303.857,27.858 303.885,28.600 304.807 C 29.040 305.353,29.580 305.932,29.800 306.094 C 30.020 306.256,30.055 306.391,29.877 306.394 C 29.700 306.397,29.872 306.936,30.259 307.592 C 30.749 308.422,31.058 308.634,31.275 308.292 C 31.473 307.981,31.590 308.172,31.594 308.812 C 31.597 309.368,31.960 310.083,32.400 310.400 C 32.840 310.717,33.200 311.295,33.200 311.685 C 33.200 312.074,33.767 312.935,34.459 313.597 C 35.152 314.258,35.574 314.800,35.397 314.800 C 35.220 314.800,35.554 315.211,36.138 315.713 C 36.722 316.215,37.200 316.855,37.200 317.136 C 37.200 317.425,37.404 317.521,37.668 317.358 C 37.983 317.164,38.052 317.287,37.881 317.734 C 37.714 318.169,37.829 318.400,38.213 318.400 C 38.536 318.400,38.800 318.681,38.800 319.024 C 38.800 319.367,38.980 319.536,39.200 319.400 C 39.420 319.264,39.600 319.534,39.600 320.000 C 39.600 320.466,39.778 320.737,39.995 320.603 C 40.222 320.463,40.289 320.623,40.153 320.979 C 39.990 321.402,40.151 321.602,40.657 321.606 C 41.237 321.611,41.279 321.689,40.847 321.962 C 40.413 322.237,40.477 322.371,41.147 322.583 C 41.616 322.732,42.000 323.125,42.000 323.456 C 42.000 324.215,43.011 325.255,43.386 324.881 C 43.540 324.726,43.613 324.780,43.548 325.000 C 43.362 325.630,44.398 327.248,44.820 326.988 C 45.029 326.858,45.200 327.123,45.200 327.576 C 45.200 328.042,45.461 328.400,45.800 328.400 C 46.130 328.400,46.355 328.625,46.300 328.900 C 46.245 329.175,46.425 329.355,46.700 329.300 C 46.975 329.245,47.155 329.425,47.100 329.700 C 47.045 329.975,47.225 330.155,47.500 330.100 C 47.775 330.045,48.000 330.371,48.000 330.824 C 48.000 331.277,48.180 331.536,48.400 331.400 C 48.620 331.264,48.800 331.427,48.800 331.762 C 48.800 332.098,49.160 332.565,49.600 332.800 C 50.040 333.035,50.400 333.497,50.400 333.825 C 50.400 334.645,53.814 337.993,54.689 338.032 C 55.102 338.050,55.192 338.147,54.904 338.264 C 54.255 338.526,55.119 339.444,56.228 339.672 C 56.660 339.761,56.976 340.132,56.944 340.515 C 56.914 340.892,57.049 341.223,57.244 341.250 C 57.440 341.278,57.780 341.345,58.000 341.400 C 58.220 341.455,58.580 341.523,58.800 341.550 C 59.020 341.578,59.200 341.791,59.200 342.024 C 59.200 342.257,58.975 342.333,58.700 342.194 C 58.425 342.055,58.695 342.329,59.300 342.804 C 59.905 343.278,60.400 343.843,60.400 344.059 C 60.400 344.698,64.428 348.430,64.841 348.175 C 65.049 348.046,65.194 348.089,65.163 348.270 C 65.018 349.101,65.307 349.477,66.800 350.400 C 67.680 350.944,68.403 351.571,68.406 351.794 C 68.409 352.017,68.587 351.930,68.800 351.600 C 69.112 351.117,69.189 351.181,69.194 351.924 C 69.197 352.436,69.378 352.737,69.600 352.600 C 69.820 352.464,70.000 352.556,70.000 352.805 C 70.000 353.355,70.566 353.922,72.400 355.208 C 73.170 355.747,74.160 356.500,74.600 356.880 C 75.040 357.259,75.541 357.571,75.714 357.571 C 75.887 357.571,76.305 357.848,76.643 358.186 C 76.981 358.524,77.502 358.800,77.802 358.800 C 78.101 358.800,78.461 359.163,78.602 359.606 C 78.743 360.049,79.025 360.308,79.229 360.182 C 79.433 360.056,79.600 360.233,79.600 360.576 C 79.600 360.919,79.870 361.200,80.200 361.200 C 80.530 361.200,80.800 361.380,80.800 361.600 C 80.800 361.820,81.205 362.003,81.700 362.006 C 82.428 362.011,82.485 362.086,82.000 362.400 C 81.488 362.731,81.503 362.789,82.104 362.794 C 82.491 362.797,83.372 363.340,84.063 364.000 C 84.754 364.660,85.562 365.200,85.859 365.200 C 86.157 365.200,86.400 365.380,86.400 365.600 C 86.400 365.820,86.805 366.003,87.300 366.006 C 88.028 366.011,88.085 366.086,87.600 366.400 C 87.131 366.703,87.238 366.789,88.086 366.794 C 88.758 366.798,89.335 367.105,89.600 367.600 C 89.835 368.040,90.215 368.400,90.443 368.400 C 90.671 368.400,91.129 368.672,91.461 369.004 C 91.793 369.336,92.230 369.505,92.432 369.380 C 92.635 369.255,92.800 369.343,92.800 369.576 C 92.800 369.809,93.081 370.000,93.424 370.000 C 93.767 370.000,93.936 370.180,93.800 370.400 C 93.664 370.620,93.811 370.800,94.127 370.800 C 94.443 370.800,94.919 371.061,95.184 371.381 C 95.851 372.184,99.633 374.027,100.066 373.759 C 100.261 373.639,100.370 373.777,100.310 374.066 C 100.248 374.361,100.771 374.762,101.500 374.979 C 102.215 375.191,102.803 375.553,102.806 375.783 C 102.809 376.012,102.987 375.930,103.200 375.600 C 103.458 375.200,103.590 375.167,103.594 375.500 C 103.597 375.775,103.941 376.000,104.357 376.000 C 104.774 376.000,105.221 376.278,105.352 376.618 C 105.482 376.958,106.221 377.500,106.994 377.823 C 107.767 378.146,108.400 378.588,108.400 378.805 C 108.400 379.022,108.760 379.200,109.200 379.200 C 109.640 379.200,110.000 379.380,110.000 379.600 C 110.000 379.820,110.360 380.000,110.800 380.000 C 111.240 380.000,111.600 380.180,111.600 380.400 C 111.600 380.620,112.061 380.800,112.624 380.800 C 113.204 380.800,113.540 380.973,113.400 381.200 C 113.260 381.427,113.596 381.600,114.176 381.600 C 114.739 381.600,115.200 381.780,115.200 382.000 C 115.200 382.220,115.740 382.400,116.400 382.400 C 117.060 382.400,117.600 382.580,117.600 382.800 C 117.600 383.020,117.903 383.200,118.274 383.200 C 118.645 383.200,119.394 383.605,119.939 384.100 C 120.483 384.595,120.777 384.740,120.592 384.421 C 120.400 384.092,120.786 384.221,121.490 384.721 C 122.168 385.205,123.011 385.600,123.362 385.600 C 123.713 385.600,124.000 385.747,124.000 385.928 C 124.000 386.108,124.900 386.500,126.000 386.800 C 127.100 387.100,128.000 387.492,128.000 387.672 C 128.000 387.853,128.414 388.000,128.920 388.000 C 129.426 388.000,130.082 388.225,130.379 388.500 C 130.810 388.900,130.861 388.900,130.635 388.500 C 130.480 388.225,130.543 388.000,130.776 388.000 C 131.009 388.000,131.200 388.180,131.200 388.400 C 131.200 388.620,131.695 388.803,132.300 388.806 C 133.157 388.811,133.268 388.898,132.800 389.200 C 132.264 389.546,133.289 389.749,134.655 389.566 C 134.796 389.547,135.021 389.709,135.155 389.926 C 135.290 390.143,135.760 390.383,136.200 390.460 C 136.640 390.537,137.104 390.740,137.230 390.911 C 137.357 391.081,138.392 391.331,139.530 391.466 C 140.669 391.601,141.600 391.866,141.600 392.056 C 141.600 392.245,142.500 392.400,143.600 392.400 C 144.700 392.400,145.600 392.580,145.600 392.800 C 145.600 393.020,146.185 393.203,146.900 393.206 C 147.886 393.211,148.055 393.306,147.600 393.600 C 147.140 393.897,147.285 393.989,148.220 393.994 C 148.891 393.997,149.682 394.225,149.979 394.500 C 150.416 394.906,150.458 394.888,150.200 394.400 C 149.942 393.912,149.984 393.894,150.421 394.300 C 150.718 394.575,151.374 394.800,151.880 394.800 C 152.386 394.800,152.800 394.980,152.800 395.200 C 152.800 395.420,153.685 395.600,154.767 395.600 C 155.966 395.600,156.812 395.795,156.935 396.100 C 157.096 396.500,157.143 396.500,157.168 396.100 C 157.186 395.825,157.391 395.600,157.624 395.600 C 157.857 395.600,157.936 395.780,157.800 396.000 C 157.657 396.231,158.036 396.400,158.696 396.400 C 159.325 396.400,160.082 396.625,160.379 396.900 C 160.810 397.300,160.861 397.300,160.635 396.900 C 160.448 396.569,160.638 396.400,161.200 396.400 C 161.666 396.400,161.936 396.580,161.800 396.800 C 161.653 397.038,162.121 397.200,162.953 397.200 C 163.723 397.200,164.464 397.380,164.600 397.600 C 164.736 397.820,165.827 398.000,167.024 398.000 C 168.221 398.000,169.200 398.180,169.200 398.400 C 169.200 398.640,170.792 398.800,173.176 398.800 C 175.363 398.800,177.245 398.949,177.357 399.131 C 177.893 399.998,222.012 400.165,222.300 399.300 C 222.419 398.942,223.660 398.800,226.657 398.800 C 229.349 398.800,230.759 398.657,230.600 398.400 C 230.386 398.054,233.071 397.766,234.670 397.963 C 234.928 397.995,235.254 397.836,235.393 397.611 C 235.533 397.385,236.177 397.200,236.824 397.200 C 237.471 397.200,238.000 397.051,238.000 396.868 C 238.000 396.686,238.928 396.515,240.063 396.489 C 241.198 396.464,242.256 396.233,242.415 395.976 C 242.626 395.635,242.762 395.656,242.920 396.055 C 243.074 396.442,243.146 396.455,243.168 396.100 C 243.189 395.780,243.839 395.600,244.976 395.600 C 245.953 395.600,246.864 395.420,247.000 395.200 C 247.136 394.980,247.697 394.800,248.247 394.800 C 248.812 394.800,249.140 394.626,249.000 394.400 C 248.851 394.158,249.396 394.000,250.376 394.000 C 251.269 394.000,252.000 393.820,252.000 393.600 C 252.000 393.380,252.630 393.200,253.400 393.200 C 254.170 393.200,254.800 393.020,254.800 392.800 C 254.800 392.580,255.595 392.400,256.567 392.400 C 257.538 392.400,258.393 392.239,258.467 392.042 C 258.540 391.845,259.480 391.567,260.556 391.423 C 261.632 391.280,263.027 390.896,263.656 390.571 C 264.285 390.246,264.800 390.053,264.800 390.143 C 264.800 390.232,265.475 390.050,266.300 389.739 C 267.125 389.427,268.115 389.067,268.500 388.939 C 268.885 388.811,269.200 388.548,269.200 388.353 C 269.200 388.159,269.650 388.000,270.200 388.000 C 270.750 388.000,271.200 387.820,271.200 387.600 C 271.200 387.380,271.391 387.200,271.624 387.200 C 271.857 387.200,271.946 387.364,271.822 387.565 C 271.698 387.765,272.309 387.585,273.179 387.165 C 274.049 386.744,275.040 386.400,275.381 386.400 C 275.721 386.400,276.000 386.220,276.000 386.000 C 276.000 385.780,276.349 385.600,276.776 385.600 C 277.203 385.600,277.664 385.420,277.800 385.200 C 277.936 384.980,278.407 384.800,278.847 384.800 C 279.287 384.800,279.536 384.620,279.400 384.400 C 279.256 384.167,279.663 384.000,280.376 384.000 C 281.049 384.000,281.600 383.820,281.600 383.600 C 281.600 383.380,281.960 383.200,282.400 383.200 C 282.840 383.200,283.200 383.020,283.200 382.800 C 283.200 382.580,283.571 382.400,284.024 382.400 C 284.477 382.400,284.736 382.220,284.600 382.000 C 284.459 381.772,284.804 381.600,285.400 381.600 C 285.996 381.600,286.341 381.428,286.200 381.200 C 286.056 380.967,286.463 380.800,287.176 380.800 C 287.849 380.800,288.400 380.620,288.400 380.400 C 288.400 380.180,288.760 380.000,289.200 380.000 C 289.640 380.000,290.003 379.865,290.006 379.700 C 290.010 379.535,290.935 378.950,292.062 378.400 C 293.189 377.850,294.309 377.085,294.552 376.700 C 294.794 376.315,295.309 376.000,295.696 376.000 C 296.083 376.000,296.400 375.820,296.400 375.600 C 296.400 375.380,296.835 375.200,297.367 375.200 C 298.672 375.200,299.644 374.795,299.377 374.363 C 299.257 374.168,299.420 374.109,299.739 374.232 C 300.058 374.354,300.438 374.262,300.584 374.026 C 300.729 373.791,301.603 373.249,302.524 372.822 C 303.446 372.395,304.652 371.631,305.205 371.123 C 306.943 369.525,307.803 368.918,307.415 369.562 C 307.185 369.943,307.225 370.032,307.538 369.838 C 307.792 369.681,308.003 369.248,308.006 368.876 C 308.011 368.293,308.066 368.283,308.400 368.800 C 308.613 369.130,308.791 369.219,308.794 368.998 C 308.797 368.776,309.358 368.348,310.040 368.046 C 310.965 367.637,311.143 367.410,310.740 367.155 C 310.371 366.921,310.584 366.810,311.412 366.806 C 312.159 366.802,312.844 366.494,313.200 366.000 C 313.517 365.560,314.025 365.200,314.328 365.200 C 314.631 365.200,315.383 364.660,316.000 364.000 C 316.617 363.340,317.454 362.797,317.860 362.794 C 318.323 362.790,318.430 362.678,318.144 362.494 C 317.814 362.281,317.842 362.058,318.244 361.684 C 318.672 361.287,318.800 361.282,318.800 361.661 C 318.800 361.932,319.276 361.580,319.858 360.877 C 320.440 360.175,321.250 359.600,321.658 359.600 C 322.066 359.600,322.400 359.425,322.400 359.210 C 322.400 358.996,322.895 358.561,323.500 358.244 C 324.105 357.927,324.971 357.317,325.425 356.888 C 325.879 356.459,326.649 355.895,327.136 355.634 C 327.624 355.373,327.900 354.961,327.749 354.718 C 327.592 354.463,327.658 354.389,327.906 354.542 C 328.465 354.888,329.688 353.665,329.342 353.106 C 329.189 352.858,329.263 352.792,329.518 352.949 C 329.761 353.100,330.163 352.842,330.412 352.377 C 330.661 351.912,330.967 351.634,331.092 351.758 C 331.217 351.883,331.607 351.672,331.959 351.290 C 332.312 350.907,333.095 350.340,333.700 350.030 C 334.340 349.701,334.813 349.117,334.832 348.632 C 334.849 348.175,334.951 348.016,335.058 348.280 C 335.338 348.969,340.320 343.944,340.065 343.231 C 339.921 342.828,340.060 342.738,340.542 342.922 C 341.062 343.122,341.277 342.913,341.452 342.040 C 341.633 341.136,341.861 340.929,342.540 341.052 C 343.013 341.138,343.177 341.102,342.904 340.972 C 342.353 340.710,343.087 339.730,343.996 339.514 C 344.644 339.361,347.112 337.062,346.953 336.760 C 346.884 336.628,347.275 336.281,347.821 335.989 C 348.545 335.601,348.677 335.369,348.308 335.134 C 347.964 334.916,348.090 334.810,348.700 334.806 C 349.497 334.801,349.655 334.616,349.580 333.779 C 349.569 333.657,350.128 333.027,350.823 332.379 C 351.517 331.731,351.878 331.200,351.627 331.200 C 351.310 331.200,351.328 331.028,351.684 330.644 C 352.058 330.242,352.281 330.214,352.494 330.544 C 352.663 330.807,352.793 330.576,352.800 330.000 C 352.808 329.338,352.921 329.172,353.134 329.508 C 353.366 329.872,353.617 329.702,354.026 328.908 C 354.339 328.298,354.867 327.530,355.200 327.200 C 356.857 325.560,358.394 323.514,358.203 323.205 C 358.085 323.014,358.351 322.743,358.794 322.602 C 359.311 322.438,359.600 321.997,359.600 321.373 C 359.600 320.838,359.780 320.400,360.000 320.400 C 360.220 320.400,360.400 320.119,360.400 319.776 C 360.400 319.433,360.580 319.264,360.800 319.400 C 361.020 319.536,361.200 319.367,361.200 319.024 C 361.200 318.681,361.344 318.400,361.520 318.400 C 361.695 318.400,362.280 317.692,362.820 316.827 C 363.359 315.962,364.133 315.164,364.540 315.054 C 364.947 314.944,365.178 314.688,365.053 314.485 C 364.927 314.282,365.269 313.699,365.812 313.188 C 366.356 312.678,366.800 312.104,366.800 311.914 C 366.800 311.723,367.160 311.180,367.600 310.708 C 368.040 310.236,368.400 309.545,368.400 309.173 C 368.400 308.802,368.805 308.197,369.300 307.830 C 369.795 307.463,369.962 307.280,369.670 307.423 C 368.919 307.793,369.950 305.998,370.900 305.282 C 371.285 304.992,371.614 304.360,371.632 303.877 C 371.651 303.347,371.750 303.219,371.883 303.554 C 372.027 303.917,372.326 303.642,372.751 302.754 C 373.108 302.009,373.729 300.915,374.131 300.322 C 374.534 299.730,374.955 298.650,375.067 297.922 C 375.180 297.195,375.436 296.540,375.636 296.467 C 375.836 296.393,376.000 296.087,376.000 295.785 C 376.000 295.483,376.461 294.775,377.025 294.212 C 377.695 293.541,377.968 292.929,377.814 292.443 C 377.646 291.916,377.814 291.637,378.389 291.487 C 378.835 291.370,379.197 291.033,379.194 290.737 C 379.189 290.329,379.094 290.344,378.800 290.800 C 378.506 291.256,378.411 291.271,378.406 290.863 C 378.403 290.567,378.760 290.231,379.200 290.116 C 379.643 290.000,380.000 289.570,380.000 289.153 C 380.000 288.739,380.180 288.400,380.400 288.400 C 380.620 288.400,380.779 288.265,380.753 288.100 C 380.623 287.281,380.836 286.375,381.117 286.549 C 381.291 286.656,381.462 286.368,381.497 285.908 C 381.532 285.448,381.769 284.943,382.025 284.784 C 382.364 284.575,382.343 284.438,381.945 284.280 C 381.558 284.126,381.545 284.054,381.900 284.032 C 382.175 284.014,382.400 283.650,382.400 283.223 C 382.400 282.795,382.800 282.165,383.289 281.823 C 383.883 281.407,383.982 281.198,383.589 281.194 C 383.078 281.189,383.079 281.137,383.600 280.800 C 383.930 280.587,384.020 280.404,383.800 280.394 C 383.580 280.384,383.737 280.180,384.148 279.941 C 384.754 279.589,384.792 279.438,384.348 279.146 C 383.898 278.850,383.923 278.713,384.483 278.382 C 384.860 278.160,385.065 277.714,384.941 277.389 C 384.816 277.065,384.914 276.800,385.157 276.800 C 385.401 276.800,385.603 276.395,385.606 275.900 C 385.611 275.172,385.686 275.115,386.000 275.600 C 386.306 276.074,386.389 275.985,386.394 275.180 C 386.397 274.619,386.613 273.947,386.873 273.687 C 387.890 272.670,385.456 272.594,345.667 272.400 C 311.482 272.234,304.734 272.112,305.400 271.672 C 306.148 271.179,306.135 271.165,305.200 271.455 C 303.863 271.869,295.262 271.852,294.000 271.433 C 293.029 271.110,293.023 271.119,293.800 271.737 C 294.532 272.321,286.258 272.374,195.800 272.373 C 107.024 272.372,97.101 272.310,98.000 271.761 L 99.000 271.150 98.000 271.446 C 96.294 271.951,87.933 272.093,87.465 271.625 C 87.231 271.391,86.761 271.205,86.420 271.212 C 85.953 271.221,85.998 271.345,86.600 271.712 " stroke="none" fill="#fbb44c" fill-rule="evenodd"></path><path id="path4" d="M351.280 193.680 C 350.339 194.621,350.620 225.475,351.574 225.986 C 352.678 226.577,360.517 226.523,361.120 225.920 C 361.943 225.097,361.796 193.761,360.967 193.443 C 359.763 192.981,351.784 193.176,351.280 193.680 " stroke="none" fill="#fc745c" fill-rule="evenodd"></path><path id="path5" d="M122.329 148.513 C 122.038 148.795,119.910 150.542,117.600 152.396 C 115.290 154.250,112.500 156.608,111.400 157.637 C 110.300 158.666,108.555 160.204,107.521 161.054 C 105.152 163.004,82.800 185.532,82.800 185.971 C 82.800 186.372,84.800 186.718,89.085 187.056 L 92.371 187.316 93.626 185.958 C 94.316 185.211,102.839 176.590,112.565 166.800 C 122.291 157.010,130.383 148.775,130.548 148.500 C 130.979 147.779,123.072 147.791,122.329 148.513 M154.124 150.411 C 150.618 150.780,147.640 151.448,145.047 152.447 C 143.972 152.861,142.904 153.200,142.673 153.200 C 142.067 153.200,134.629 157.031,132.019 158.687 C 123.639 164.005,113.579 173.495,104.955 184.217 C 101.699 188.266,95.509 197.242,95.784 197.518 C 95.879 197.613,97.902 197.323,100.279 196.874 C 102.655 196.424,108.200 195.408,112.600 194.616 C 117.000 193.824,122.580 192.819,125.000 192.383 C 127.420 191.947,130.480 191.399,131.800 191.165 C 133.120 190.931,135.010 190.587,136.000 190.400 C 136.990 190.213,138.970 189.859,140.400 189.612 C 145.355 188.757,152.907 187.275,153.849 186.973 C 160.491 184.844,166.109 179.042,168.198 172.155 C 169.283 168.579,169.053 152.776,167.900 151.696 C 166.071 149.983,161.896 149.593,154.124 150.411 M87.115 224.328 C 86.738 224.478,89.026 224.600,92.200 224.600 C 95.374 224.600,97.662 224.478,97.285 224.328 C 96.908 224.179,94.620 224.056,92.200 224.056 C 89.780 224.056,87.492 224.179,87.115 224.328 M293.330 224.555 C 292.412 224.803,291.512 225.162,291.330 225.353 C 291.146 225.546,291.354 225.592,291.800 225.456 C 296.182 224.126,303.042 224.116,307.339 225.435 C 307.812 225.580,308.056 225.548,307.881 225.364 C 306.701 224.123,296.939 223.581,293.330 224.555 M83.800 225.200 C 83.664 225.420,83.209 225.600,82.789 225.600 C 82.368 225.600,81.344 226.005,80.512 226.500 L 79.000 227.400 56.026 227.513 C 40.179 227.590,32.888 227.761,32.526 228.062 C 31.932 228.554,31.804 234.292,32.303 238.000 C 32.546 239.797,32.637 239.102,32.800 234.200 L 33.000 228.200 56.000 228.000 C 75.093 227.834,79.170 227.702,80.000 227.220 C 80.550 226.902,82.170 226.241,83.600 225.752 C 85.436 225.125,85.884 224.854,85.124 224.832 C 84.532 224.814,83.936 224.980,83.800 225.200 M100.400 225.587 C 101.610 225.992,103.410 226.697,104.400 227.153 L 106.200 227.982 196.000 227.985 C 245.390 227.987,286.008 227.856,286.262 227.694 C 286.516 227.532,245.926 227.400,196.062 227.400 L 105.400 227.400 103.888 226.500 C 103.056 226.005,102.032 225.600,101.611 225.600 C 101.191 225.600,100.736 225.420,100.600 225.200 C 100.464 224.980,99.868 224.811,99.276 224.825 C 98.479 224.844,98.771 225.041,100.400 225.587 M288.300 226.120 C 287.695 226.359,287.200 226.691,287.200 226.857 C 287.200 227.023,287.785 226.922,288.500 226.632 C 289.215 226.341,290.070 226.005,290.400 225.884 C 290.814 225.731,290.752 225.667,290.200 225.674 C 289.760 225.680,288.905 225.881,288.300 226.120 M308.433 225.735 C 308.787 226.022,312.000 227.185,312.000 227.026 C 312.000 226.737,309.506 225.600,308.872 225.600 C 308.539 225.600,308.342 225.661,308.433 225.735 M312.938 227.694 C 313.192 227.856,323.516 227.991,335.880 227.994 C 356.864 228.000,358.387 228.047,358.768 228.700 C 359.154 229.363,359.176 229.363,359.188 228.687 C 359.195 228.296,358.975 227.893,358.700 227.792 C 357.846 227.480,312.448 227.383,312.938 227.694 M358.446 230.067 C 358.421 230.434,358.296 231.064,358.170 231.467 C 357.952 232.162,357.963 232.163,358.397 231.487 C 358.648 231.096,358.773 230.466,358.673 230.087 C 358.511 229.468,358.488 229.466,358.446 230.067 M339.900 236.700 C 321.482 236.823,322.847 236.501,324.800 240.265 C 325.460 241.537,326.000 242.388,326.000 242.157 C 326.000 241.925,325.552 240.850,325.004 239.768 L 324.007 237.800 339.758 237.695 C 353.129 237.607,355.584 237.501,356.004 236.995 C 356.276 236.668,356.431 236.443,356.349 236.495 C 356.267 236.548,348.865 236.640,339.900 236.700 M116.400 237.536 C 116.400 237.941,116.951 239.246,117.624 240.436 C 118.297 241.626,118.725 242.162,118.574 241.628 C 118.423 241.093,117.963 240.103,117.552 239.428 C 117.140 238.752,116.802 238.065,116.801 237.900 C 116.801 237.735,152.350 237.600,195.800 237.600 C 239.250 237.600,274.800 237.745,274.800 237.921 C 274.800 238.098,274.329 239.189,273.753 240.345 C 272.620 242.617,272.239 243.887,271.392 248.200 C 270.718 251.630,270.666 253.200,271.224 253.200 C 271.457 253.200,271.560 253.059,271.454 252.887 C 270.747 251.743,272.787 243.195,274.647 239.513 C 275.171 238.476,275.600 237.441,275.600 237.213 C 275.600 236.930,250.507 236.800,196.000 236.800 C 118.970 236.800,116.400 236.824,116.400 237.536 M89.000 239.147 C 76.576 242.415,75.966 259.601,88.115 264.042 C 100.637 268.619,110.892 252.073,101.410 242.590 C 98.453 239.634,92.951 238.107,89.000 239.147 M295.800 239.334 C 281.772 243.998,284.877 264.800,299.600 264.800 C 313.358 264.800,317.389 245.865,304.881 239.986 C 302.596 238.912,298.051 238.585,295.800 239.334 M32.812 242.000 C 32.812 242.330,32.987 242.870,33.200 243.200 C 33.545 243.733,33.588 243.733,33.588 243.200 C 33.588 242.870,33.413 242.330,33.200 242.000 C 32.855 241.467,32.812 241.467,32.812 242.000 M119.023 243.800 C 119.885 248.347,120.322 249.817,120.330 248.200 C 120.334 247.320,119.991 245.700,119.567 244.600 C 119.125 243.456,118.893 243.114,119.023 243.800 M326.239 243.866 C 326.389 244.490,326.657 245.287,326.836 245.638 C 327.015 245.988,327.215 247.832,327.281 249.734 C 327.370 252.325,327.537 253.194,327.945 253.196 C 328.359 253.199,328.420 252.842,328.198 251.700 C 328.038 250.875,327.755 249.210,327.569 248.000 C 327.010 244.362,326.726 243.202,326.338 242.962 C 326.122 242.828,326.081 243.204,326.239 243.866 M34.640 246.000 C 35.241 247.297,36.861 249.187,38.099 250.033 C 39.145 250.748,39.047 250.577,37.600 249.161 C 36.610 248.192,35.477 246.950,35.081 246.400 C 34.686 245.850,34.488 245.670,34.640 246.000 M39.600 250.996 C 39.600 251.270,42.049 252.484,42.232 252.301 C 42.319 252.214,41.762 251.844,40.995 251.478 C 40.228 251.112,39.600 250.895,39.600 250.996 M120.315 252.000 C 120.218 252.660,120.287 253.200,120.469 253.200 C 120.651 253.200,120.800 252.660,120.800 252.000 C 120.800 251.340,120.730 250.800,120.645 250.800 C 120.560 250.800,120.412 251.340,120.315 252.000 M43.400 252.800 C 43.536 253.020,44.042 253.187,44.524 253.172 C 45.369 253.145,45.371 253.131,44.600 252.800 C 43.499 252.327,43.108 252.327,43.400 252.800 M65.000 253.455 C 67.801 253.750,72.002 253.777,72.001 253.500 C 72.000 253.335,70.155 253.229,67.900 253.264 C 65.645 253.299,64.340 253.385,65.000 253.455 M72.068 255.000 C 72.062 255.440,72.211 256.160,72.400 256.600 C 72.838 257.619,72.838 256.568,72.400 255.200 C 72.143 254.396,72.077 254.357,72.068 255.000 M110.867 259.180 C 110.633 259.851,110.527 260.400,110.631 260.400 C 110.901 260.400,111.656 258.322,111.457 258.124 C 111.367 258.033,111.101 258.508,110.867 259.180 M313.775 266.100 L 312.600 267.400 313.900 266.225 C 314.615 265.579,315.200 264.994,315.200 264.925 C 315.200 264.616,314.870 264.888,313.775 266.100 M77.200 265.688 C 77.200 265.766,78.055 266.533,79.100 267.392 C 80.145 268.251,80.640 268.540,80.200 268.034 C 79.422 267.139,77.200 265.402,77.200 265.688 M87.541 271.701 C 87.743 271.903,88.333 272.001,88.854 271.919 C 89.655 271.793,89.598 271.737,88.487 271.552 C 87.693 271.421,87.319 271.479,87.541 271.701 M95.800 271.600 C 94.693 271.882,94.677 271.909,95.600 271.947 C 96.150 271.969,96.870 271.813,97.200 271.600 C 97.881 271.160,97.529 271.160,95.800 271.600 M294.800 271.594 C 295.130 271.811,295.835 271.991,296.367 271.994 C 297.651 272.002,297.325 271.775,295.600 271.458 C 294.615 271.277,294.378 271.318,294.800 271.594 M303.000 271.600 C 301.893 271.882,301.877 271.909,302.800 271.947 C 303.350 271.969,304.070 271.813,304.400 271.600 C 305.081 271.160,304.729 271.160,303.000 271.600 " stroke="none" fill="#a4acba" fill-rule="evenodd"></path></g></svg>